<?xml version="1.0" encoding="UTF-8" standalone="no"?>
<svg
   xmlns:dc="http://purl.org/dc/elements/1.1/"
   xmlns:cc="http://creativecommons.org/ns#"
   xmlns:rdf="http://www.w3.org/1999/02/22-rdf-syntax-ns#"
   xmlns:svg="http://www.w3.org/2000/svg"
   xmlns="http://www.w3.org/2000/svg"
   xmlns:sodipodi="http://sodipodi.sourceforge.net/DTD/sodipodi-0.dtd"
   xmlns:inkscape="http://www.inkscape.org/namespaces/inkscape"
   class="ionicon"
   viewBox="0 0 512 512"
   version="1.1"
   id="svg849"
   sodipodi:docname="waterIcon.svg"
   inkscape:version="1.0.2 (e86c870, 2021-01-15)">
  <metadata
     id="metadata855">
    <rdf:RDF>
      <cc:Work
         rdf:about="">
        <dc:format>image/svg+xml</dc:format>
        <dc:type
           rdf:resource="http://purl.org/dc/dcmitype/StillImage" />
      </cc:Work>
    </rdf:RDF>
  </metadata>
  <defs
     id="defs853" />
  <sodipodi:namedview
     pagecolor="#ffffff"
     bordercolor="#666666"
     borderopacity="1"
     objecttolerance="10"
     gridtolerance="10"
     guidetolerance="10"
     inkscape:pageopacity="0"
     inkscape:pageshadow="2"
     inkscape:window-width="1239"
     inkscape:window-height="1048"
     id="namedview851"
     showgrid="false"
     inkscape:snap-intersection-paths="true"
     inkscape:snap-smooth-nodes="true"
     inkscape:zoom="0.54744415"
     inkscape:cx="190.89221"
     inkscape:cy="356.34591"
     inkscape:window-x="465"
     inkscape:window-y="0"
     inkscape:window-maximized="0"
     inkscape:current-layer="svg849"
     inkscape:document-rotation="0"
     inkscape:snap-page="true" />
  <title
     id="title845">Water</title>
  <path
     style="opacity:0.998;fill:#ffffff;stroke:#ffffff;stroke-width:18.8976;stroke-miterlimit:4;stroke-dasharray:none;stroke-opacity:1"
     d="m 274.19562,429.04726 a 13.646712,13.666528 0 0 1 -12.89615,-18.22203 13.521619,13.54125 0 0 1 12.97575,-9.11102 68.3018,68.400966 0 0 0 68.15396,-68.25291 13.521619,13.54125 0 0 1 9.09781,-12.9946 13.646712,13.666528 0 0 1 18.19561,12.91487 95.629341,95.768182 0 0 1 -95.52698,95.66569 z"
     id="path876"
     inkscape:export-xdpi="96.000008"
     inkscape:export-ydpi="96.000008" />
  <path
     style="opacity:0.998;fill:#ffffff;stroke:#ffffff;stroke-width:37.796;stroke-miterlimit:4;stroke-dasharray:none;stroke-opacity:1"
     d="m 266.37149,28.299148 a 13.646712,13.666528 0 0 0 -20.73163,0 C 209.63529,70.471771 92.239437,216.27083 92.239437,324.27056 c 0,100.64258 63.275263,163.99831 163.760563,163.99831 100.48529,0 163.76056,-63.35573 163.76056,-163.99831 0,-107.99973 -117.39585,-253.798789 -153.38907,-295.971412 z"
     id="path859"
     inkscape:export-xdpi="96.000008"
     inkscape:export-ydpi="96.000008" />
  <path
     d="m 266.37149,28.299148 a 13.646712,13.666528 0 0 0 -20.73163,0 C 209.63529,70.471771 92.239437,216.27083 92.239437,324.27056 c 0,100.64258 63.275263,163.99831 163.760563,163.99831 100.48529,0 163.76056,-63.35573 163.76056,-163.99831 0,-107.99973 -117.39585,-253.798789 -153.38907,-295.971412 z m 7.82413,400.748112 a 13.646712,13.666528 0 0 1 -12.89615,-18.22203 13.521619,13.54125 0 0 1 12.97575,-9.11102 68.3018,68.400966 0 0 0 68.15396,-68.25291 13.521619,13.54125 0 0 1 9.09781,-12.9946 13.646712,13.666528 0 0 1 18.19561,12.91487 95.629341,95.768182 0 0 1 -95.52698,95.66569 z"
     id="path847"
     inkscape:export-xdpi="96.000008"
     inkscape:export-ydpi="96.000008"
     style="opacity:0.998;stroke-width:0.999995" />
  <rect
     style="display:inline;opacity:0;fill:#000000;stroke:none;stroke-width:18.898;stroke-linecap:round;stroke-linejoin:round;stroke-miterlimit:4;stroke-dasharray:none;stroke-opacity:1;stop-color:#000000"
     id="rect882"
     width="512"
     height="512"
     x="0"
     y="0"
     inkscape:export-xdpi="96.000008"
     inkscape:export-ydpi="96.000008" />
</svg>
