<?xml version="1.0" encoding="UTF-8" standalone="no"?>
<svg
   xmlns:dc="http://purl.org/dc/elements/1.1/"
   xmlns:cc="http://creativecommons.org/ns#"
   xmlns:rdf="http://www.w3.org/1999/02/22-rdf-syntax-ns#"
   xmlns:svg="http://www.w3.org/2000/svg"
   xmlns="http://www.w3.org/2000/svg"
   xmlns:sodipodi="http://sodipodi.sourceforge.net/DTD/sodipodi-0.dtd"
   xmlns:inkscape="http://www.inkscape.org/namespaces/inkscape"
   class="ionicon"
   viewBox="0 0 512 512"
   version="1.1"
   id="svg849"
   sodipodi:docname="waterIcon.svg"
   inkscape:version="1.0.2 (e86c870, 2021-01-15)">
  <metadata
     id="metadata855">
    <rdf:RDF>
      <cc:Work
         rdf:about="">
        <dc:format>image/svg+xml</dc:format>
        <dc:type
           rdf:resource="http://purl.org/dc/dcmitype/StillImage" />
      </cc:Work>
    </rdf:RDF>
  </metadata>
  <defs
     id="defs853" />
  <sodipodi:namedview
     pagecolor="#ffffff"
     bordercolor="#666666"
     borderopacity="1"
     objecttolerance="10"
     gridtolerance="10"
     guidetolerance="10"
     inkscape:pageopacity="0"
     inkscape:pageshadow="2"
     inkscape:window-width="1159"
     inkscape:window-height="785"
     id="namedview851"
     showgrid="false"
     inkscape:snap-intersection-paths="true"
     inkscape:snap-smooth-nodes="true"
     inkscape:zoom="0.40818871"
     inkscape:cx="356.07424"
     inkscape:cy="233.59306"
     inkscape:window-x="457"
     inkscape:window-y="188"
     inkscape:window-maximized="0"
     inkscape:current-layer="svg849" />
  <title
     id="title845">Water</title>
  <path
     style="opacity:0.998;fill:#ffffff;stroke:#ffffff;stroke-width:18.8976;stroke-miterlimit:4;stroke-dasharray:none;stroke-opacity:1"
     d="m 275.19995,438.35885 a 14.399951,14.397905 0 0 1 -13.60796,-19.19721 14.267952,14.265923 0 0 1 13.69195,-9.5986 72.071759,72.061511 0 0 0 71.91576,-71.90553 14.267952,14.265923 0 0 1 9.59997,-13.69002 14.399951,14.397905 0 0 1 19.19993,13.60602 100.90766,100.89331 0 0 1 -100.79965,100.78534 z"
     id="path876"
     inkscape:export-xdpi="96.000008"
     inkscape:export-ydpi="96.000008" />
  <path
     style="opacity:0.998;fill:#ffffff;stroke:#ffffff;stroke-width:18.8976;stroke-miterlimit:4;stroke-dasharray:none;stroke-opacity:1"
     d="m 266.94397,16.164304 a 14.399951,14.397905 0 0 0 -21.87593,0 C 207.07618,60.593836 83.200585,214.19548 83.200585,327.97492 c 0,106.02856 66.767775,172.77484 172.799425,172.77484 106.03164,0 172.79942,-66.74628 172.79942,-172.77484 0,-113.77944 -123.87558,-267.381084 -161.85546,-311.810616 z"
     id="path859"
     inkscape:export-xdpi="96.000008"
     inkscape:export-ydpi="96.000008" />
  <path
     d="m 266.94397,16.164304 a 14.399951,14.397905 0 0 0 -21.87593,0 C 207.07618,60.593836 83.200585,214.19548 83.200585,327.97492 c 0,106.02856 66.767775,172.77484 172.799425,172.77484 106.03164,0 172.79942,-66.74628 172.79942,-172.77484 0,-113.77944 -123.87558,-267.381084 -161.85546,-311.810616 z m 8.25598,422.194546 a 14.399951,14.397905 0 0 1 -13.60796,-19.19721 14.267952,14.265923 0 0 1 13.69195,-9.5986 72.071759,72.061511 0 0 0 71.91576,-71.90553 14.267952,14.265923 0 0 1 9.59997,-13.69002 14.399951,14.397905 0 0 1 19.19993,13.60602 100.90766,100.89331 0 0 1 -100.79965,100.78534 z"
     id="path847"
     inkscape:export-xdpi="96.000008"
     inkscape:export-ydpi="96.000008"
     style="opacity:0.998;stroke-width:1" />
  <rect
     style="opacity:0;fill:#000000;stroke:none;stroke-width:18.8976;stroke-linecap:round;stroke-linejoin:round;stroke-miterlimit:4;stroke-dasharray:none;stroke-opacity:1;stop-color:#000000"
     id="rect882"
     width="512"
     height="512"
     x="0"
     y="0"
     inkscape:export-xdpi="96.000008"
     inkscape:export-ydpi="96.000008" />
</svg>
